<?xml version="1.0" encoding="UTF-8"?>
<svg width="413px" height="497px" viewBox="0 0 413 497" version="1.1" xmlns="http://www.w3.org/2000/svg" xmlns:xlink="http://www.w3.org/1999/xlink">
    <!-- Generator: Sketch 51.3 (57544) - http://www.bohemiancoding.com/sketch -->
    <title>H-TEC-Anwendungen-icon-gross-gruener-WS</title>
    <desc>Created with Sketch.</desc>
    <defs></defs>
    <g id="H-TEC-Anwendungen-icon-gross-gruener-WS" stroke="none" stroke-width="1" fill="none" fill-rule="evenodd" opacity="0.85">
        <g id="H-TEC-gruener-WS-gruen" fill="#A1C036">
            <path d="M225.094104,116.106484 C224.199311,123.180126 223.572134,130.433608 223.24347,137.789091 C221.57071,175.22531 228.172949,208.867608 243.740274,237.789238 C260.318176,268.583348 286.694825,293.432232 321.4722,312.485076 C332.459326,318.504392 343.806176,323.654221 355.25499,327.896414 C361.716875,330.290772 367.60727,332.180832 372.109877,333.358481 C374.491372,333.977175 376.883708,334.38993 379.26789,334.607368 C365.053905,426.438083 286.074374,496.712388 190.773581,496.712388 C85.4122415,496.712388 0,410.817741 0,304.861324 C0,198.904907 85.4122415,113.01026 190.773581,113.01026 C202.490475,113.01026 213.960659,114.072515 225.094104,116.106484 Z M210.319857,396.977386 L210.319857,221.157601 L174.889628,221.157601 L174.889628,293.036866 L109.934208,293.036866 L109.934208,221.157601 L74.5039785,221.157601 L74.5039785,396.977386 L109.934208,396.977386 L109.934208,324.063887 L174.889628,324.063887 L174.889628,396.977386 L210.319857,396.977386 Z M289.212293,406.410461 L248.199557,406.410461 L265.412422,390.733735 C273.795009,382.996372 279.581305,376.414442 282.776123,370.987945 C285.967732,365.561449 287.565943,359.131422 287.565943,351.693017 C287.565943,332.698663 277.08771,323.203101 256.132847,323.203101 C245.654614,323.203101 235.52619,324.710821 225.747575,327.724643 L226.795398,343.853846 L230.388164,343.401369 C238.270107,342.19584 245.555127,341.593075 252.24162,341.593075 C256.731374,341.593075 260.197375,342.549742 262.644436,344.456611 C265.088287,346.366712 266.311015,349.656869 266.311015,354.330314 C266.311015,359.003759 264.837965,363.400869 261.895073,367.520029 C258.950577,371.642422 253.738739,377.569875 246.254745,385.307239 L225.149048,406.862938 L225.149048,424.49986 L289.212293,424.49986 L289.212293,406.410461 Z M364.941123,70.1912294 C394.524912,103.132259 419.863329,146.346803 410.772022,209.594784 C405.056196,249.396268 393.339313,275.479025 385.436739,289.360582 C372.256595,268.441273 350.811445,228.719191 335.35418,171.440393 C313.948528,92.1455659 327.142844,32.3850043 327.142844,32.3850043 C327.142844,32.3850043 297.145641,99.2008123 322.079574,190.925744 C332.775524,230.276683 346.512483,267.60988 356.708489,293.258173 C328.212857,280.202132 278.695195,250.617691 263.291834,197.592735 C233.153543,93.8174779 336.129601,1.42108547e-14 336.129601,1.42108547e-14 C336.129601,1.42108547e-14 340.984949,43.5289399 364.941123,70.1912294 Z" id="Combined-Shape"></path>
        </g>
    </g>
</svg>